<?xml version="1.0" encoding="UTF-8" standalone="no"?>
 
<svg
   xmlns:dc="http://purl.org/dc/elements/1.1/"
   xmlns:cc="http://creativecommons.org/ns#"
   xmlns:rdf="http://www.w3.org/1999/02/22-rdf-syntax-ns#"
   xmlns:svg="http://www.w3.org/2000/svg"
   xmlns="http://www.w3.org/2000/svg"
   xmlns:sodipodi="http://sodipodi.sourceforge.net/DTD/sodipodi-0.dtd"
   xmlns:inkscape="http://www.inkscape.org/namespaces/inkscape"
   id="svg13862"
   version="1.1"
   inkscape:version="0.48.4 r9939"
   width="960.016"
   height="677.012"
   xml:space="preserve"
   sodipodi:docname="exp_map3.svg"><metadata
     id="metadata13868"><rdf:RDF><cc:Work
         rdf:about=""><dc:format>image/svg+xml</dc:format><dc:type
           rdf:resource="http://purl.org/dc/dcmitype/StillImage" /><dc:title></dc:title></cc:Work></rdf:RDF></metadata><defs
     id="defs13866"><clipPath
       clipPathUnits="userSpaceOnUse"
       id="clipPath13876"><path
         d="m 0,586.072 950,0 L 950,0 0,0 0,586.072 z"
         id="path13878"
         inkscape:connector-curvature="0" /></clipPath><clipPath
       clipPathUnits="userSpaceOnUse"
       id="clipPath13972"><path
         d="m 0,586.072 950,0 L 950,0 0,0 0,586.072 z"
         id="path13974"
         inkscape:connector-curvature="0" /></clipPath><clipPath
       clipPathUnits="userSpaceOnUse"
       id="clipPath13988"><path
         d="m 0,586.072 950,0 L 950,0 0,0 0,586.072 z"
         id="path13990"
         inkscape:connector-curvature="0" /></clipPath><clipPath
       clipPathUnits="userSpaceOnUse"
       id="clipPath14004"><path
         d="m 0,586.072 950,0 L 950,0 0,0 0,586.072 z"
         id="path14006"
         inkscape:connector-curvature="0" /></clipPath><clipPath
       clipPathUnits="userSpaceOnUse"
       id="clipPath14020"><path
         d="m 0,586.072 950,0 L 950,0 0,0 0,586.072 z"
         id="path14022"
         inkscape:connector-curvature="0" /></clipPath><clipPath
       clipPathUnits="userSpaceOnUse"
       id="clipPath14040"><path
         d="m 0,586.072 950,0 L 950,0 0,0 0,586.072 z"
         id="path14042"
         inkscape:connector-curvature="0" /></clipPath><clipPath
       clipPathUnits="userSpaceOnUse"
       id="clipPath14056"><path
         d="m 0,586.072 950,0 L 950,0 0,0 0,586.072 z"
         id="path14058"
         inkscape:connector-curvature="0" /></clipPath><clipPath
       clipPathUnits="userSpaceOnUse"
       id="clipPath14068"><path
         d="m 0,586.072 950,0 L 950,0 0,0 0,586.072 z"
         id="path14070"
         inkscape:connector-curvature="0" /></clipPath><clipPath
       clipPathUnits="userSpaceOnUse"
       id="clipPath14168"><path
         d="m 0,586.072 950,0 L 950,0 0,0 0,586.072 z"
         id="path14170"
         inkscape:connector-curvature="0" /></clipPath><clipPath
       clipPathUnits="userSpaceOnUse"
       id="clipPath14184"><path
         d="m 0,586.072 950,0 L 950,0 0,0 0,586.072 z"
         id="path14186"
         inkscape:connector-curvature="0" /></clipPath><clipPath
       clipPathUnits="userSpaceOnUse"
       id="clipPath14200"><path
         d="m 0,586.072 950,0 L 950,0 0,0 0,586.072 z"
         id="path14202"
         inkscape:connector-curvature="0" /></clipPath><clipPath
       clipPathUnits="userSpaceOnUse"
       id="clipPath14216"><path
         d="m 0,586.072 950,0 L 950,0 0,0 0,586.072 z"
         id="path14218"
         inkscape:connector-curvature="0" /></clipPath><clipPath
       clipPathUnits="userSpaceOnUse"
       id="clipPath14232"><path
         d="m 0,586.072 950,0 L 950,0 0,0 0,586.072 z"
         id="path14234"
         inkscape:connector-curvature="0" /></clipPath><clipPath
       clipPathUnits="userSpaceOnUse"
       id="clipPath14260"><path
         d="m 0,586.072 950,0 L 950,0 0,0 0,586.072 z"
         id="path14262"
         inkscape:connector-curvature="0" /></clipPath><clipPath
       clipPathUnits="userSpaceOnUse"
       id="clipPath14272"><path
         d="m 0,586.072 950,0 L 950,0 0,0 0,586.072 z"
         id="path14274"
         inkscape:connector-curvature="0" /></clipPath><clipPath
       clipPathUnits="userSpaceOnUse"
       id="clipPath14364"><path
         d="m 0,586.072 950,0 L 950,0 0,0 0,586.072 z"
         id="path14366"
         inkscape:connector-curvature="0" /></clipPath><clipPath
       clipPathUnits="userSpaceOnUse"
       id="clipPath14380"><path
         d="m 0,586.072 950,0 L 950,0 0,0 0,586.072 z"
         id="path14382"
         inkscape:connector-curvature="0" /></clipPath><clipPath
       clipPathUnits="userSpaceOnUse"
       id="clipPath14416"><path
         d="m 0,586.072 950,0 L 950,0 0,0 0,586.072 z"
         id="path14418"
         inkscape:connector-curvature="0" /></clipPath><clipPath
       clipPathUnits="userSpaceOnUse"
       id="clipPath14432"><path
         d="m 0,586.072 950,0 L 950,0 0,0 0,586.072 z"
         id="path14434"
         inkscape:connector-curvature="0" /></clipPath><clipPath
       clipPathUnits="userSpaceOnUse"
       id="clipPath14444"><path
         d="m 0,586.072 950,0 L 950,0 0,0 0,586.072 z"
         id="path14446"
         inkscape:connector-curvature="0" /></clipPath><clipPath
       clipPathUnits="userSpaceOnUse"
       id="clipPath14536"><path
         d="m 0,586.072 950,0 L 950,0 0,0 0,586.072 z"
         id="path14538"
         inkscape:connector-curvature="0" /></clipPath><clipPath
       clipPathUnits="userSpaceOnUse"
       id="clipPath14638"><path
         d="m 0,586.072 950,0 L 950,0 0,0 0,586.072 z"
         id="path14640"
         inkscape:connector-curvature="0" /></clipPath><clipPath
       clipPathUnits="userSpaceOnUse"
       id="clipPath14666"><path
         d="m 0,586.072 950,0 L 950,0 0,0 0,586.072 z"
         id="path14668"
         inkscape:connector-curvature="0" /></clipPath><clipPath
       clipPathUnits="userSpaceOnUse"
       id="clipPath14682"><path
         d="m 0,586.072 950,0 L 950,0 0,0 0,586.072 z"
         id="path14684"
         inkscape:connector-curvature="0" /></clipPath><clipPath
       clipPathUnits="userSpaceOnUse"
       id="clipPath14698"><path
         d="m 0,586.072 950,0 L 950,0 0,0 0,586.072 z"
         id="path14700"
         inkscape:connector-curvature="0" /></clipPath><clipPath
       clipPathUnits="userSpaceOnUse"
       id="clipPath14714"><path
         d="m 0,586.072 950,0 L 950,0 0,0 0,586.072 z"
         id="path14716"
         inkscape:connector-curvature="0" /></clipPath></defs><sodipodi:namedview
     pagecolor="#ffffff"
     bordercolor="#666666"
     borderopacity="1"
     objecttolerance="10"
     gridtolerance="10"
     guidetolerance="10"
     inkscape:pageopacity="0"
     inkscape:pageshadow="2"
     inkscape:window-width="1444"
     inkscape:window-height="850"
     id="namedview13864"
     showgrid="false"
     inkscape:zoom="0.760416"
     inkscape:cx="363.106"
     inkscape:cy="334.024"
     inkscape:window-x="-4"
     inkscape:window-y="-3"
     inkscape:window-maximized="1"
     inkscape:current-layer="g13870"
     fit-margin-top="0"
     fit-margin-left="0"
     fit-margin-right="0"
     fit-margin-bottom="0" /><g
     id="g13870"
     inkscape:groupmode="layer"
     inkscape:label="karta"
     transform="matrix(1.25,0,0,-1.25,-84.9408,693.335)"><g
   id="exp_regions"
   transform="matrix(0.945045,0,0,0.945045,3.73433,0.720212)"><g
     transform="translate(591.797,141.681)"
     id="exp_len"
     class="exp_region"><path
       id="path13882"
       style="fill:#0064b4;fill-opacity:1;fill-rule:evenodd;stroke:none"
       d="m 0,0 -1.259,0.677 c -1.951,2.413 -5.793,5.086 -10.319,6.686 -1.982,0.664 -5.11,-2.509 -7.81,-2.804 -4.945,-0.655 -10.291,2.193 -15.299,0.709 l -1.565,-0.753 -1.13,-1.265 c -4.418,-6.275 6.153,-1.421 6.153,-5.555 0,-4.523 -4.408,-4.977 -7.333,-2.516 -0.942,0.238 -8.552,-8.421 -10.091,-9.06 -3.363,-1.394 -17.197,-4.56 -33.03,11.773 -10.137,10.458 -25.328,15.05 -24.355,13.614 -12.077,3.773 -6.063,4.894 -12.589,9.135 -3.685,-5.082 -33.086,-22.058 -33.361,-26.627 -0.09,-0.912 3.425,-1.235 4.194,-1.344 4.226,-0.874 6.16,2.775 10.101,4.39 l 4.009,1.152 c 2.066,-2.483 -2.559,-3.956 -2.674,-4.402 -0.431,-1.54 1.072,-3.132 0.969,-4.731 -0.02,-0.295 -0.1,-1.861 -0.882,-1.603 -0.868,0.293 -1.893,1.908 -2.319,2.647 3.496,-17.695 14.793,-11.921 21.968,-15.345 3.978,-1.928 3.656,-6.334 8.057,-9.509 1.506,-1.531 -1.708,-4.291 -3.451,-4.084 -3.99,0.479 -13.84,9.747 -18.906,6.488 -2.141,-1.374 -0.378,-4.798 -5.183,-5.937 -2.536,-0.604 -5.443,3.538 -7.488,2.245 -1.621,-1.024 -1.615,-5.094 -3.727,-5.04 -3.114,0.113 -2.482,6.464 -5.162,3.788 -1.752,-1.755 -0.338,-4.643 -0.404,-6.609 -0.08,-1.509 -1.004,-2.991 -2.181,-4.639 l 1.417,0.413 c 7.091,-7.462 -2.643,-6.287 -4.397,-8.487 -2.133,-2.652 -3.35,-6.116 -5.413,-8.85 8.128,-0.428 6.412,-7.064 13.097,-7.189 2.708,-1.75 10.229,-3.139 11.225,-4.273 6.42,-7.264 4.077,-14.34 16.482,-15.192 5.762,-1.542 0.76,7.423 5.73,9.199 2.985,1.051 6.367,-2.626 9.408,-1.639 0.907,0.305 8.119,10.419 9.436,11.385 3.504,2.63 2.13,-6.047 9.267,0.703 1.938,1.813 3.965,10.443 4.33,10.657 1.521,0.888 3.364,-1.35 4.598,-1.605 1.29,-0.272 3.146,3.022 7.299,-0.31 2.937,-2.402 1.903,-10.387 6.584,-10.582 4.687,-0.128 4.626,9.694 10.086,10.341 2.568,0.306 4.164,-3.098 5.594,-3.08 16.211,0.471 3.788,-4.266 12.614,-8.032 3.694,-1.605 14.093,-1.318 17.323,-5.131 1.028,8.258 9.569,4.238 12.503,8.718 1.36,2.016 -0.029,6.724 0.694,7.369 0.637,0.603 5.501,4.411 5.66,5.117 l -0.145,1.7 c -0.761,1.578 -3.145,0.543 -4.096,2.004 -1.215,1.895 0.531,4.868 -0.886,6.691 -1.344,1.721 -4.643,0.97 -4.592,4.287 0.066,6.42 5.427,11.899 6.949,17.48 0.858,3.153 1.904,6.683 0.92,9.843 -0.382,1.336 -2.742,2.685 -1.467,4.277 1.882,2.448 3.769,3.533 5.469,4.407 -0.383,1.118 2.649,4.989 2.943,9.561 L 3.313,1.484 C 3.31,1.433 3.312,1.379 3.309,1.327 L 0,0 z"
       inkscape:connector-curvature="0" /></g><g
     transform="translate(506.535,381.606)"
     id="exp_kar"
     class="exp_region"><path
       id="path13890"
       style="fill:#0082c8;fill-opacity:1;fill-rule:evenodd;stroke:#ffffff;stroke-width:0.299457;stroke-linecap:butt;stroke-linejoin:miter;stroke-miterlimit:10;stroke-opacity:1;stroke-dasharray:none"
       d="m 0,0 c 7.787,-2.389 32.745,-5.02 36.28,-6.839 1.474,-0.721 3.291,-15.474 12.821,-12.148 1.338,0.507 3.902,6.38 4.64,7.19 1.276,1.349 4.341,-0.377 6.024,0.7 1.227,-0.762 1.107,-1.653 1.176,-2.866 1.812,-1.044 9.988,-4.153 10.309,-5.533 0.879,-3.038 -5.143,-3.058 -5.003,-4.611 11.371,-7.948 22.981,-9.102 24.767,-27.068 0.246,-2.514 -3.485,2.191 -4.264,0.783 -0.289,-0.542 0.896,-6.682 -2.106,-11.163 -0.824,-1.28 -5.323,-1.369 -5.245,-2.861 0.21,-3.724 6.054,-10.542 6.244,-14.834 l 1.045,-17.564 c 0.124,-1.728 -2.359,-2.788 -2.271,-4.216 0.063,-1.165 8.965,-10.053 10.811,-10.054 1.609,0 2.975,2.208 3.704,2.071 2.681,-0.503 4.582,-5.357 7.42,-7.006 2.895,-1.649 1.047,-9.787 4.984,-9.633 0.627,-3.528 0.411,-11.752 -2.808,-14.076 -2.1,-1.553 -8.929,0.781 -9.136,-1.909 -0.079,-1.636 7.109,-14.249 8.193,-15.868 2.472,-3.639 -0.413,-8.951 0.83,-13.17 4.96,-16.297 14.071,-6.694 19.936,-11.485 5.564,-4.515 -1.765,-13.533 -0.747,-16.286 0.606,-1.586 3.043,-1.122 3.717,-2.771 1.898,-4.527 4.313,-12.575 3.217,-17.38 -0.899,-1.393 -3.089,-0.362 -3.732,-2.044 -0.77,-2.051 0.431,-4.63 -1.044,-6.711 -7.615,-5.383 -14.365,5.774 -21.41,1.84 -2.131,-1.203 -2.458,-2.549 -3.762,-4.246 -2.239,5.297 -9.307,14.123 -10.089,17.39 -1.786,7.639 3.42,45.837 -21.085,44.513 -2.509,-0.13 4.835,-15.843 6.358,-17.196 l 0.325,0.845 c -0.281,1.148 -0.969,3.394 -0.037,4.437 1.117,1.144 2.251,-4.113 2.949,-4.841 0.505,-0.507 0.305,1.949 0.305,1.949 0.298,1.379 3.257,0.23 4.143,-0.902 3.27,-4.052 5.871,-20.846 -3.174,-14.554 -6.049,4.253 -2.755,1.007 -1.375,-2.298 0.419,-0.991 0.228,-3.442 -1.564,-2.557 -4.405,2.172 -3.444,18.349 -8.022,20.267 -4.052,1.685 2.657,-8.334 2.124,-9.188 -0.292,-0.439 -1.003,0.568 -1.029,0.595 l -2.901,4.335 c -0.186,0.212 -1.246,1.355 -1.539,0.483 -0.64,-2.067 5.183,-9.742 4.112,-15.71 -0.159,-0.85 -1.34,0.509 -1.43,0.608 -1.106,1.198 -4.39,4.127 -6.117,4.182 -2.793,0 5.217,-8.319 4.323,-11.058 -1.631,-4.951 -4.314,2.455 -5.406,0 -2.658,-6.014 17.736,-19.542 20.775,-23.143 1.953,-2.358 2.478,-4.749 2.334,-6.997 l -3.308,-1.327 -1.259,0.676 c -1.951,2.414 -5.793,5.086 -10.319,6.687 -1.982,0.664 -5.111,-2.51 -7.81,-2.805 -4.945,-0.654 -10.291,2.194 -15.299,0.709 l -1.565,-0.753 -1.13,-1.264 c -4.418,-6.276 6.153,-1.421 6.153,-5.555 0,-4.523 -4.408,-4.978 -7.333,-2.517 -0.942,0.239 -8.553,-8.42 -10.092,-9.059 -3.362,-1.395 -17.196,-4.561 -33.029,11.772 -10.138,10.458 -25.328,15.051 -24.355,13.615 -12.21,3.814 -5.92,4.917 -12.8,9.273 9.76,11.395 51.747,45.704 51.88,59.438 0.118,13.048 -23.303,26.676 -23.656,36.247 -0.046,1.074 11.702,8.294 11.183,16.099 -0.427,5.698 -12.996,16.738 -3.984,21.114 -0.654,1.437 -0.832,5.344 -1.14,5.748 -1.507,2.034 -6.369,-1.393 -6.415,8.213 -0.034,4.5 10.941,9.928 2.951,11.793 -1.575,0.851 1.709,3.792 1.902,5.348 0.303,2.329 1.672,9.498 2.464,11.202 1.549,3.133 5.495,-0.926 6.184,3.07 C 9.591,-30.82 3.081,-10.138 0,0"
       inkscape:connector-curvature="0" /></g><g
     transform="translate(492.081,473.074)"
     id="exp_fin"
     class="exp_region"><path
       id="path13894"
       style="fill:#7dd2f5;fill-opacity:1;fill-rule:nonzero;stroke:none"
       d="m 0,0 c -18.216,-9.134 -16.886,-5.338 -16.886,-5.338 0,0 -3.231,4.89 -8.436,-2.671 -5.216,-7.553 -14.498,-15.555 -13.528,-18.625 0.971,-3.072 2.909,-9.208 2.909,-9.208 l -11.425,-14.586 -11.552,9.849 -7.895,3.14 -5.944,8.533 -9.878,1.929 -2.425,7.672 -12.605,-8.202 c 0,0 3.646,-11.508 9.182,-15.671 5.533,-4.158 9.052,-7.263 11.312,-9.082 2.261,-1.815 5.379,-14.335 5.052,-18.656 -0.321,-4.325 4.295,-18.903 4.295,-18.903 l -2.139,-6.584 c 0,0 1.902,-8.689 1.338,-12.24 -0.562,-3.548 -6.374,-17.206 -6.374,-17.206 l 8.404,-15.912 c 0,0 8.809,-6.501 9.986,-12.887 1.172,-6.377 0.814,-13.24 -2.54,-15.993 -3.351,-2.749 -13.367,-8.445 -17.323,-17.298 -3.954,-8.846 -2.94,-9.369 -10.653,-14.342 -7.714,-4.97 -12.527,-3.116 -12.527,-3.116 l -11.904,-13.047 -14.621,-7.153 -8.474,-21.257 8.574,-21.767 c 0,0 -12.313,-22.462 -11.585,-24.762 0.727,-2.302 0.02,-32.07 4.333,-32.395 4.326,-0.321 14.591,-11.423 18.143,-11.988 3.554,-0.565 15.91,8.412 22.253,7.041 6.344,-1.369 38.416,-1.358 42.252,-0.148 1.379,0.443 4.304,1.255 7.939,2.462 9.017,6.563 21.5,14.457 23.827,17.659 -0.07,0.05 -0.129,0.09 -0.207,0.138 9.76,11.395 51.747,45.704 51.88,59.439 0.118,13.048 -23.303,26.675 -23.655,36.246 -0.047,1.074 11.701,8.294 11.182,16.099 -0.427,5.699 -12.996,16.739 -3.984,21.115 -0.654,1.436 -0.832,5.343 -1.14,5.748 -1.507,2.033 -6.369,-1.394 -6.415,8.213 -0.034,4.5 10.942,9.927 2.951,11.793 -1.575,0.85 1.709,3.792 1.902,5.347 0.303,2.329 1.672,9.498 2.464,11.202 1.549,3.133 5.496,-0.925 6.184,3.071 1.783,9.955 -4.594,30.353 -7.705,40.586 -0.052,0.016 -0.117,0.035 -0.166,0.051 -9.956,22.515 15.754,24.557 17.501,39.584 0.211,1.926 -9.717,21.353 -11.814,22.972 -1.784,1.344 -5.228,3.227 -6.167,5.202 -3.295,6.882 -2.127,11.168 0.01,15.144 -1.177,0.789 -2.337,1.506 -3.327,2.02 C 6.545,-4.684 18.209,9.136 0,0"
       inkscape:connector-curvature="0" /></g><g
     transform="translate(506.457,381.37)"
     id="exp_mur"
     class="exp_region"><path
       id="path13902"
       style="fill:#00aaf0;fill-opacity:1;fill-rule:evenodd;stroke:#ffffff;stroke-width:0.299457;stroke-linecap:butt;stroke-linejoin:miter;stroke-miterlimit:10;stroke-opacity:1;stroke-dasharray:none"
       d="M 0,0 C -9.956,22.515 15.754,24.557 17.501,39.584 17.712,41.51 7.784,60.938 5.688,62.556 3.903,63.9 0.459,65.783 -0.479,67.758 -6.388,80.103 2.06,84.1 4.696,92.932 c 1.652,5.571 -5.162,3.345 -3.224,6.103 1.217,1.73 5.973,2.216 6.996,4.68 1.407,-1.342 3.124,-1.84 4.644,-0.512 2.993,2.627 2.583,7.554 4.077,9.482 0.644,0.794 11.127,4.046 12.265,5.172 3.919,3.872 1.37,9.004 3.025,8.722 l 0.419,-0.303 c 1.303,-0.972 10.584,-11.317 10.362,-1.696 -0.018,1.489 -1.603,4.628 -0.569,5.933 0.257,0.278 1.288,-0.445 1.55,-0.491 1.683,-0.205 5.814,-1.551 7.024,-2.731 0.495,-0.441 0.737,-1.357 0.555,-1.908 -0.01,-0.06 -0.543,-1.419 -0.089,-1.297 0.819,0.204 1.185,0.3 1.539,0.341 0.36,0.03 0.718,0.01 1.581,-0.02 1.604,-0.05 1.092,4.034 2.196,5.271 0.708,0.786 1.487,0.47 2.194,0.03 0,0 0.864,-0.473 0.949,-0.06 0.242,1.049 -1.148,5.693 0.658,5.539 2.541,-0.227 16.98,-11.8 16.263,-14.037 -3.812,-12.389 -14.377,8.325 -16.731,-0.322 -1.105,-4.149 2.553,-0.938 4.939,-3.923 2.125,-2.612 -0.096,-2.318 -0.871,-3.721 l 0.249,-0.853 c 2.059,-0.754 6.551,1.948 10.012,-0.159 1.399,-0.897 -4.155,-4.752 -3.943,-6.129 l 0.941,-0.628 c 0.148,0.02 4.441,6.123 8.266,4.509 1.763,-0.743 -1.221,-12.167 -3.085,-13.747 -0.623,-0.494 -0.205,-1.858 0.816,-1.629 l 3.075,1.58 c 3.771,2.067 -0.746,9.325 8.919,7.914 5.364,-0.771 9.542,-5.357 15.095,-6.411 5.666,-1.063 1.41,2.793 4.595,2.011 0.73,-0.189 5.633,-2.541 5.958,-3.101 0.372,-0.556 0.48,-1.576 0.561,-2.231 l 0.135,-1.174 c 0.155,2.879 4.828,0.599 6.949,-0.042 0.994,-0.306 0.822,-1.901 1.139,-2.64 0.489,-1.068 5.159,-4.619 6.426,-5.741 5.091,-4.535 27.982,-30.293 29.57,-30.965 l 0.557,0.326 c -0.101,0.753 -1.58,1.799 -1.402,2.678 0.328,1.409 3.334,-0.87 3.8,-1.294 3.458,-3.231 6.309,-9.55 10.977,-12.202 3.584,-2.049 2.844,2.49 3.013,3.634 l 0.662,0.463 c 2.334,-1.021 8.637,-16.369 10.068,-17.559 1.668,-1.337 2.018,1.766 3.084,1.515 2.194,-0.475 4.44,-1.569 5.814,-3.317 l 0.521,-1.555 c 0.218,-2.927 -0.348,-15.925 1.396,-17.981 2.455,-2.92 4.578,-3.954 3.366,-9.373 -2.235,-9.94 -11.507,-21.012 -19.055,-27.238 -25.967,-21.509 -33.101,-9.733 -57.25,-2.335 -6.741,2.092 -18.639,3.442 -24.283,7.531 -3.132,2.227 -5.274,6.267 -8.704,8.277 -3.433,2.009 -3.524,-1.129 -6.116,-0.598 -2.197,0.471 -1.282,2.607 -1.93,4.048 l -0.36,0.41 -11.466,8.196 c -2.492,1.506 0.676,-6.317 -3.552,-2.767 -2.032,1.685 -7.923,8.285 -8.632,10.623 -0.738,2.309 1.306,3.669 -0.946,5.033 -2.945,1.778 -8.139,4.644 -11.597,2.788 -1.251,-0.662 5.555,-3.784 6.776,-5.508 1.525,-2.127 -3.444,-2.12 2.74,-9.369 1.191,-1.411 2.564,-3.949 3.838,-4.95 0.744,-0.528 3.946,-1.521 3.458,-2.164 -0.791,-1.076 -5.06,-1.31 -5.142,-2.159 -1.681,-1.071 -4.749,0.639 -6.021,-0.7 -0.734,-0.813 -3.302,-6.687 -4.644,-7.19 C 39.577,-22.306 37.751,-7.557 36.284,-6.835 32.738,-5.021 7.79,-2.393 0,0"
       inkscape:connector-curvature="0" /></g><g
     transform="translate(507.929,480.405)"
     id="exp_nor"
     class="exp_region"><path
       id="path13922"
       style="fill:#b4dcf5;fill-opacity:1;fill-rule:nonzero;stroke:none"
       d="M 0,0 C 0.987,1.398 4.287,1.986 6.061,3.468 5.665,3.835 5.291,4.13 4.944,4.306 c -3.026,1.578 -4.729,6.946 -8.041,6.745 -3.312,-0.205 -9.369,2.95 -9.369,2.95 l -6.502,-8.814 c 0,0 -7.794,5.975 -0.645,7.393 7.147,1.421 4.679,6.545 4.679,6.545 0,0 -5.938,10.784 -9.815,7.024 -3.879,-3.755 -6.866,-15.674 -6.866,-15.674 l -5.164,-5.008 c 0,0 3.103,19.55 -0.047,13.483 -3.148,-6.055 -9.326,-10.542 -9.326,-10.542 l -9.611,-12.322 4.036,13.936 4.685,6.547 1.893,7.355 -3.716,6.421 -8.799,-9.539 0.401,9.409 -4.405,-4.768 -4.245,5.41 c 0,0 2.35,-12.763 2.313,-15.308 -0.044,-2.545 -9.131,2.175 -9.131,2.175 l -1.211,3.846 -13.051,-4.131 2.388,-10.218 -4.117,-2.989 c 0,0 -13.54,13.438 -10.828,7.547 2.706,-5.893 0.126,-8.398 0.126,-8.398 l 4.037,-2.102 -7.426,-3.192 -2.954,6.663 -2.831,-1.739 1.946,-6.137 -10.786,-5.944 -4.85,15.353 c 0,0 -10.865,-11.036 -16.757,-13.743 -5.897,-2.713 -17.613,-3.038 -17.691,-8.127 l -0.08,-5.091 -8.562,-10.303 -4.241,5.411 5.771,11.108 -10.861,-11.028 -2.668,8.436 -18.012,-12.446 4.045,-2.096 -23.346,-11.608 c 0,0 26.292,4.943 28.034,2.116 1.735,-2.829 8.154,0.891 12.758,2.348 l 4.606,1.455 c 0,0 -7.51,-8.281 -14.174,-11.234 -6.66,-2.951 -13.123,-9.213 -19.663,-20.569 -6.537,-11.35 -16.96,-10.425 -18.53,-13.456 -1.572,-3.031 -27.255,-33.941 -27.255,-33.941 l -11.628,-11.276 c 0,0 -13,-17.616 -18.61,-18.546 -5.617,-0.933 -26.774,-19.437 -31.662,-22.677 -4.887,-3.23 -5.977,8.245 -5.977,8.245 l -10.178,0.157 -3.435,-7.837 -4.643,-4.003 -2.911,9.21 -2.864,-4.283 3.193,-7.437 c 0,0 -16.725,4.842 -21.124,0.08 -4.404,-4.769 3.919,-9.733 3.919,-9.733 l -4.117,-2.99 c 0,0 -10.266,11.102 -12.363,7.061 -2.098,-4.036 -1.169,-9.656 -1.169,-9.656 l -13.449,2.499 -13.493,-0.04 0.368,-9.17 -7.187,-3.955 3.195,-7.435 -6.909,-2.184 1.377,-9.7 -12.393,-11.511 3.191,-7.429 -7.505,-8.283 c 0,0 5.777,-4.923 8.806,-6.501 3.028,-1.577 -7.996,-6.744 -7.996,-6.744 l 2.91,-9.217 -12.276,-3.875 -4.275,-13.173 c 0,0 13.774,1.818 15.267,-0.232 1.495,-2.068 -5.45,-6.795 -7.514,-8.291 -2.054,-1.501 -8.191,-3.439 -8.191,-3.439 0,0 -2.138,-6.581 -1.166,-9.653 0.969,-3.067 8.97,-12.355 12.687,-18.773 3.716,-6.421 -1.489,-13.98 6.185,-11.551 7.673,2.426 22.376,-1.368 25.448,-0.394 3.07,0.968 21.324,12.649 21.324,12.649 0,0 28.026,2.115 30.043,17.097 l -2.017,-14.982 6.062,-3.145 3.679,-8.97 10.575,9.252 c 0,0 -3.836,14.825 3.791,14.705 7.638,-0.113 4.651,4.006 4.651,4.006 0,0 2.823,1.731 6.136,1.939 3.308,0.202 11.219,17.894 11.219,17.894 l 0.799,18.821 c 0,0 14.785,1.304 13.934,12.009 l -6.747,7.995 c 0,0 -9.375,2.942 -1.38,9.694 7.995,6.743 7.019,25.852 7.019,25.852 l 6.782,10.584 0.676,11.191 c 0,0 3.185,24.638 23.222,20.005 0,0 6.507,-7.228 10.343,-6.018 3.838,1.216 10.696,16.888 1.364,22.379 l 20.145,19.03 9.604,28.361 5.292,-3.392 8.077,11.839 20.593,14.952 -2.628,10.988 7.75,7.514 12.92,12.53 3.232,-4.886 c 0,0 7.835,12.604 9.933,16.646 2.094,4.038 5.853,0.161 5.853,0.161 0,0 10.306,-8.56 15.112,-10.414 4.807,-1.858 10.496,20.203 10.496,20.203 l 4.15,-2.447 c -0.07,0.207 -0.116,0.346 -0.116,0.346 l 12.605,8.202 2.425,-7.672 9.878,-1.929 5.944,-8.533 7.894,-3.14 11.552,-9.849 11.425,14.586 c 0,0 -1.938,6.136 -2.908,9.208 -0.97,3.07 8.311,11.072 13.527,18.625 5.205,7.561 8.437,2.671 8.437,2.671 0,0 -1.33,-3.796 16.885,5.338 18.209,9.136 6.545,-4.684 10.579,-6.782 0.331,-0.174 0.683,-0.366 1.04,-0.582 1.514,-1.223 2.165,-1.763 2.54,-1.138 0.955,1.593 2.875,5 3.652,6.538 0.488,1.002 0.919,2.057 1.262,3.192 C 4.876,-0.532 -1.938,-2.758 0,0"
       inkscape:connector-curvature="0" /></g></g><g
   id="exp_others"
   transform="matrix(0.945045,0,0,0.945045,3.73433,0.720212)"><g
     id="g17536"><g
       transform="translate(879.626,447.004)"
       id="g13908"><path
         id="path13910"
         style="fill:none;stroke:#828282;stroke-width:0.299457;stroke-linecap:butt;stroke-linejoin:miter;stroke-miterlimit:10;stroke-opacity:1;stroke-dasharray:none"
         d="m 0,0 c -0.093,3.421 -2.663,8.589 -2.936,8.512 -1.813,-0.411 -10.279,-7.819 -12.573,-9.218 -2.607,-1.607 -5.97,-1.267 -7.788,-2.313 -8.815,-5.089 -14.071,-22.027 -25.395,-23.681 -3.579,-0.511 -4.502,1.694 -6.482,1.794 l -0.303,-0.546 c 0.501,-0.95 1.764,-1.456 2.183,-2.555 0.627,-1.613 -0.198,-3.349 1.22,-4.719 0.62,-0.575 3.769,-2.003 3.218,-3.216 l -0.998,-0.079 c -1.536,0.544 -1.784,0.895 -3.616,1.015 -2.838,0.243 -9.142,-1.161 -11.91,-2.398 -3.405,-1.534 -0.555,-23.309 -2.884,-27.917 -2.683,-5.419 -25.957,-9.796 -30.51,-6.573 -3.458,2.491 -3.428,10.219 -6.068,12.981 -2.206,2.259 -8.551,3.33 -10.585,6.746 -2.249,3.77 8.091,17.515 8.665,17.685 1.917,0.614 18.542,4.235 18.901,4.66 1.251,1.433 -1.711,5.655 -2.321,7.229 -0.501,1.35 0.161,4.607 -0.176,4.928 -4.375,4.031 -7.283,9.522 -11.17,13.318 -6.765,6.578 -20.141,2.106 -28.299,3.395 -2.054,0.306 -13.213,8.847 -13.642,4.555 -0.517,-4.635 15.246,-10.01 16.03,-19.259 1.157,-13.494 -7.303,-34.399 -6.87,-40.895 0.09,-1.697 10.878,-8.209 12.202,-14.306 1.458,-6.637 -3.914,-18.597 -3.904,-21.601 1.039,-0.332 1.753,-0.789 2.328,-1.298 -1.184,-6.002 -1.845,-10.83 -1.912,-17.393 -1.273,2.028 -0.447,12.17 -6.062,10.043 -4.158,-1.625 -3.353,-1.648 -5.733,-5.176 -0.823,-1.294 3.562,9.244 3.176,9.695 -2.28,2.412 -23.368,9.547 -23.944,9.377 -2.467,-0.878 -2.106,-3.971 -2.986,-5.906 -1.566,-3.489 -6.816,-9.48 -9.805,-11.986 -4.249,-3.556 -6.786,-2.38 -11.154,-4.143 -0.277,-0.123 -8.022,-11.039 -12.737,-13.223 -18.384,-8.385 5.122,-25.911 6.239,-37.271 0.139,-1.109 -0.504,-2.662 -0.721,-3.752 l -0.258,-1.165 c -1.068,0.129 -0.168,2.415 -0.984,3.094 -1.217,0.941 -5.168,1.946 -6.495,0.791 -0.842,-0.743 -0.07,-1.901 0.825,-3.247 0.654,-0.295 1.16,-1.128 1.403,-2.703 -0.261,0.941 -0.851,1.859 -1.403,2.703 -2.384,1.047 -6.683,-4.42 -7.384,-4.233 -4.631,1.076 -15.724,10.497 -19.854,9.729 -4.059,-0.772 -6.367,-6.357 -8.133,-6.633 -1.056,-0.13 0.107,5.855 0.903,6.484 0.278,0.191 4.032,1.635 2.885,2.254 -3.419,1.92 -22.502,20.913 -24.463,13.783 0.617,-13.576 -7.503,-1.441 -6.283,-14.547 0.05,-0.625 11.375,-17.762 12.942,-17.899 3.095,-0.296 6.043,4.06 8.901,2.829 2.894,-1.268 4.82,-19.777 1.669,-21.97 -1.47,-1.063 -3.132,0.832 -4.607,-0.01 -1.511,-0.826 -0.758,-3.346 -2.327,-4.112 -1.157,-0.545 -20.61,7.263 -19.77,7.298 0.627,-3.529 0.411,-11.752 -2.808,-14.076 -2.1,-1.553 -8.929,0.781 -9.136,-1.91 -0.08,-1.635 7.109,-14.249 8.193,-15.868 2.472,-3.638 -0.413,-8.95 0.83,-13.17 4.96,-16.297 14.072,-6.693 19.936,-11.484 5.564,-4.516 -1.765,-13.533 -0.747,-16.286 0.606,-1.586 3.044,-1.122 3.717,-2.772 1.898,-4.526 4.313,-12.575 3.217,-17.38 -0.899,-1.392 -3.089,-0.362 -3.732,-2.044 -0.77,-2.05 0.431,-4.629 -1.044,-6.71 -1.746,-1.227 -3.435,-1.586 -5.105,-1.462 2.545,-5.896 8.251,-7.758 10.977,-13.911 1.895,-4.204 3.018,-12.934 9.322,-15.61 2.291,-0.954 3.947,2.566 6.154,1.708 1.468,-0.61 2.93,-3.35 5.4,-4.257 4.568,-1.58 5.659,1.56 8.035,1.46 3.863,-0.136 5.737,-3.623 6.956,-3.676 2.699,-0.08 3.34,1.533 6.759,0.118 0.796,-0.02 6.684,4.799 9.237,2.58 1.723,-1.519 4.682,-5.342 7.708,-4.917 7.152,1.072 5.06,11.299 10.152,9.997 1.084,-0.274 1.189,-1.792 1.936,-2.266 0.645,-0.421 1.545,1.481 1.83,1.673 1.806,1.247 4.457,0.382 6.634,0.07 0.95,-0.131 2.552,-4.528 8.244,-3.563 2.788,0.449 4.379,3.609 7.902,3.022 3.425,-0.533 2.053,-5.914 5.546,-4.797 3.687,1.124 9.815,12.23 9.942,12.282 1.595,0.281 18.615,-7.693 24.973,-7.311 5.498,0.352 -1.223,10.765 10.626,12.653 2.649,0.416 2.979,-5.88 8.837,-7.546 3.884,-1.129 3.428,6.532 15.556,-3.113 6.987,16.612 16.604,5.742 27.601,3.626 -1.176,12.678 13.683,1.381 16.591,26.158 0.894,7.421 -6.394,3.695 -7.455,15.75 -0.549,6.455 8.682,25.479 5.971,34.646 -0.656,2.356 -11.771,5.895 -14.055,4.455 -1.95,-1.213 -1.438,-4.507 -2.414,-6.325 -1.656,-3.163 -3.299,2.89 -6.642,-7.94 -1.677,-5.428 2.157,-4.997 1.798,-7.825 -0.445,-3.224 -7.018,-2.071 -9.259,-2.737 -2.522,-0.794 -1.09,-4.207 -3.226,-5.127 -0.74,-0.298 -2.794,-0.367 -3.503,-0.06 -3.546,1.382 -8.671,21.76 -7.163,25.434 0.961,2.504 10.433,7.853 7.651,12.624 -1.942,3.421 -7.088,4.035 -9.216,7.345 -4.915,7.518 4.05,11.243 -9.797,21.022 -3.653,2.588 -23.438,10.346 -21.421,16.157 1.513,4.426 38.052,9.551 44.36,9.836 2.081,0.08 10.128,-11.497 10.445,-5.15 -0.436,10.648 2.701,3.652 6.761,5.92 1.935,1.086 1.621,4.559 3.993,5.126 1.882,0.465 5.061,-1.513 6.603,-0.357 1.743,1.371 1.509,4.604 4.077,5.166 2.654,0.53 8.202,-2.776 10.176,-1.549 1.066,0.627 1.1,6.745 1.282,8.256 -0.323,2.074 -5.44,2.154 -6.882,4.05 -2.194,3.012 -7.427,18.172 -8.731,19.179 -1.775,1.311 -6.562,-3.942 -9.097,-3.524 -1.969,0.35 -2.159,6.724 -2.303,8.35 -0.473,6.876 -3.842,23.407 -3.057,28.772 l 0.345,0.502 c 8.118,12.492 25.317,19.823 34.296,27.296 3.244,2.691 3.932,9.01 4.803,9.414 0.697,0.343 2.172,-1.854 4.013,-0.91 L 0,0 z"
         inkscape:connector-curvature="0" /></g><g
       transform="translate(813.918,127.388)"
       id="g13916"><path
         id="path13918"
         style="fill:none;stroke:#828282;stroke-width:0.299457;stroke-linecap:butt;stroke-linejoin:miter;stroke-miterlimit:10;stroke-opacity:1;stroke-dasharray:none"
         d="m 0,0 c -12.128,9.645 -11.672,1.983 -15.556,3.112 -5.858,1.666 -6.188,7.963 -8.837,7.546 -11.849,-1.887 -5.128,-12.301 -10.626,-12.652 -6.358,-0.382 -23.378,7.592 -24.973,7.31 -0.127,-0.051 -6.255,-11.157 -9.942,-12.281 -3.493,-1.117 -2.121,4.264 -5.546,4.797 -3.523,0.587 -5.114,-2.573 -7.902,-3.022 -5.692,-0.965 -7.294,3.432 -8.244,3.563 -2.177,0.313 -4.828,1.178 -6.634,-0.069 -0.285,-0.193 -1.185,-2.094 -1.83,-1.673 -0.747,0.473 -0.852,1.992 -1.936,2.265 -5.092,1.302 -3,-8.924 -10.152,-9.997 -3.026,-0.424 -5.985,3.399 -7.708,4.917 -2.553,2.22 -8.441,-2.596 -9.237,-2.58 -3.419,1.415 -4.06,-0.201 -6.759,-0.117 -1.219,0.053 -3.093,3.539 -6.956,3.676 -2.376,0.1 -3.467,-3.04 -8.035,-1.46 -2.47,0.907 -3.932,3.646 -5.4,4.257 -2.207,0.858 -3.863,-2.662 -6.154,-1.708 -6.304,2.676 -7.427,11.406 -9.322,15.61 -2.726,6.152 -8.164,7.702 -10.711,13.595 0,0 -0.266,0.315 -0.266,0.315 -5.519,0.393 -10.692,6.111 -16.016,3.449 -0.745,-4.357 -2.579,-9.672 -7.107,-12.18 -8.386,-4.652 -8.111,0.223 -11.089,4.408 0,0 -0.992,-0.622 -2.387,-1.633 0.454,-1.304 0.589,-2.589 0.512,-3.828 l 0.257,-0.064 c -0.294,-4.572 -3.326,-8.443 -2.943,-9.561 -1.7,-0.874 -3.587,-1.959 -5.469,-4.407 -1.275,-1.592 1.085,-2.942 1.467,-4.277 0.984,-3.16 -0.06,-6.69 -0.92,-9.843 -1.488,-5.447 -6.606,-10.792 -6.919,-17 -0.337,-1.367 0.286,-3.283 3.911,-4.184 0.24,-0.163 0.465,-0.345 0.651,-0.583 1.417,-1.823 -0.329,-4.796 0.886,-6.691 0.951,-1.461 3.335,-0.426 4.096,-2.004 l 0.145,-1.7 c -0.16,-0.706 -5.023,-4.514 -5.661,-5.118 -0.722,-0.644 0.666,-5.352 -0.693,-7.368 -2.891,-4.409 -11.196,-0.594 -12.435,-8.326 0.123,-0.116 0.249,-0.238 0.359,-0.366 0.13,-1.618 7.121,-12.021 8.345,-13.238 0.451,-0.379 2.767,1.367 3.345,1.603 0.766,0.329 6.414,0.316 7.199,-0.01 3.872,-1.44 5.719,-5.181 7.353,-8.72 6.765,-1.363 7.683,-0.328 7.683,-0.328 6.199,6.683 12.351,3.774 16.352,-0.866 l 1.487,4.287 c 0,0 7.084,4.638 7.703,7.233 0.611,2.618 -6.882,4.789 -3.35,8.405 3.525,3.615 4.816,4.281 9.852,-9.622 5.05,-13.891 12.788,-8.605 15.874,3.775 3.083,12.382 12.035,-2.13 14.987,-5.02 2.966,-2.88 14.178,-17.024 19.335,-13.716 5.15,3.318 2.395,16.272 4.976,17.61 2.583,1.317 21.761,-0.71 22.05,2.21 0.292,2.924 1.856,7.818 6.072,7.54 4.226,-0.273 12.924,5.362 31.241,-5.445 18.322,-10.819 21.77,-0.709 24.685,-0.348 2.916,0.359 20.185,-4.294 24.628,3.55 4.456,7.855 -1.744,10.053 2.08,15.95 0.789,1.211 16.005,-7.925 18.218,-3.033 0.428,0.945 1.195,1.629 2.174,2.159 -1.188,1.454 -1.979,2.745 -1.916,3.682 0.268,4.227 -2.668,5.169 -0.126,9.743 2.538,4.571 -6.582,7.712 -6.582,7.712 l 0.284,2.922 c 0,0 -17.196,-0.536 -14.031,5.997 C -9.429,-16.192 6.128,-8.197 5.72,7.868 8.658,9.712 1.148,11.359 0,0 z"
         inkscape:connector-curvature="0" /></g><g
       transform="translate(423.456,364.431)"
       id="g13932"><path
         id="path13934"
         style="fill:none;stroke:#828282;stroke-width:0.299457;stroke-linecap:butt;stroke-linejoin:miter;stroke-miterlimit:10;stroke-opacity:1;stroke-dasharray:none"
         d="m 0,0 c 0.564,3.551 -1.338,12.24 -1.338,12.24 l 2.14,6.583 c 0,0 -4.616,14.579 -4.295,18.904 0.326,4.321 -2.791,16.84 -5.053,18.656 -2.26,1.819 -5.779,4.924 -11.311,9.082 -4.995,3.753 -8.435,13.452 -9.066,15.325 l -4.15,2.446 c 0,0 -5.689,-22.061 -10.495,-20.202 -4.807,1.854 -15.113,10.413 -15.113,10.413 0,0 -0.7,0.724 -1.668,1.221 0,0 -1.242,0.848 -2.492,0.223 -1.25,-0.625 -2.898,-3.786 -2.898,-3.786 -2.959,-5.186 -8.728,-14.465 -8.728,-14.465 l -3.232,4.886 -12.92,-12.529 -7.75,-7.515 2.628,-10.987 -20.592,-14.953 -8.078,-11.838 -5.292,3.391 -9.604,-28.36 -20.145,-19.03 c 9.332,-5.492 2.474,-21.163 -1.364,-22.379 -3.836,-1.21 -10.343,6.017 -10.343,6.017 -20.037,4.634 -23.222,-20.005 -23.222,-20.005 l -0.676,-11.19 -6.782,-10.584 c 0,0 0.976,-19.109 -7.019,-25.853 -7.995,-6.752 1.38,-9.693 1.38,-9.693 l 6.747,-7.995 c 0.851,-10.705 -13.934,-12.01 -13.934,-12.01 l -0.799,-18.82 c 0,0 -7.911,-17.693 -11.219,-17.895 -3.313,-0.208 -6.136,-1.938 -6.136,-1.938 0,0 2.987,-4.119 -4.651,-4.006 -7.627,0.119 -3.791,-14.705 -3.791,-14.705 l -10.575,-9.252 -3.679,8.97 -0.438,0.225 -4.236,-22.808 12.399,-4.516 -11.664,-13.823 2.431,-23.713 c 0,0 14.63,-24.911 5.382,-30.382 -9.246,-5.446 -6.368,-33.232 -8.427,-34.729 -2.058,-1.495 12.401,-4.515 12.401,-4.515 l 12.646,-5.29 2.421,8.358 21.121,15.974 16.926,-8.163 9.16,16.405 c 0,0 13.643,26.266 14.209,29.816 0.561,3.556 10.127,29.374 10.127,29.374 0,0 16.231,12.722 15.539,17.575 -0.685,4.847 2.389,-10.212 2.389,-10.212 l 25.202,16.403 -8.325,4.963 8.965,3.683 -0.653,23.425 -18.833,16.835 9.117,29.9 3.994,11.387 4.837,16.724 13.614,7.682 c 0,0 7.266,9.05 19.339,16.244 12.076,7.189 14.9,8.934 14.9,8.934 0,0 11.233,1.857 12.802,4.895 1.575,3.028 10.137,13.327 10.137,13.327 0,0 -3.923,9.739 0.8,18.823 4.719,9.092 4.314,15.714 4.314,15.714 l 13.327,5.905 0.927,10.424 12.604,-7.836 12.034,4.649 4.155,0.459 -6.502,12.31 c 0,0 5.812,13.658 6.374,17.207 z"
         inkscape:connector-curvature="0" /></g></g></g>

<text
   id="exp_names"
   transform="scale(1,-1)"
   x="462.23901"
   y="-102.25867"
   style="font-size:11.34054px"><tspan
     id="tspan13950"
     sodipodi:role="line"
     y="-102.25867"
     x="462.23901 469.31552 475.39404 483.01486 490.73779 498.35864 503.37109 508.99609 515.56219 522.88824 529.36365 536.28137 542.91559"
     style="font-size:11.34054px;font-variant:normal;font-weight:normal;font-stretch:normal;writing-mode:lr-tb;fill:#fafafa;fill-opacity:1;fill-rule:nonzero;stroke:none;font-family:PT Sans;-inkscape-font-specification:PTSans-Regular"
     class="exp_name_len">ЛЕНИНГРАДСКАЯ</tspan><tspan
     id="tspan13952"
     sodipodi:role="line"
     y="-92.267662"
     x="482.93546 490.69244 496.92972 504.00616 510.3569 516.51489 522.8089"
     style="font-size:11.34054px;font-variant:normal;font-weight:normal;font-stretch:normal;writing-mode:lr-tb;fill:#fafafa;fill-opacity:1;fill-rule:nonzero;stroke:none;font-family:PT Sans;-inkscape-font-specification:PTSans-Regular"
     class="exp_name_len">ОБЛАСТЬ</tspan><tspan
     id="tspan13954"
     sodipodi:role="line"
     y="-237.09769"
     x="495.73895 502.07831 508.15686 514.63232 522.10577 528.37701 534.61432 541.6908 549.41376 556.33148"
     style="font-size:11.34054px;font-variant:normal;font-weight:normal;font-stretch:normal;writing-mode:lr-tb;fill:#fafafa;fill-opacity:1;fill-rule:nonzero;stroke:none;font-family:PT Sans;-inkscape-font-specification:PTSans-Regular"
     class="exp_name_kar">РЕСПУБЛИКА</tspan><tspan
     id="tspan13956"
     sodipodi:role="line"
     y="-227.10669"
     x="505.5032 512.4209 519.05505 525.39441 531.47302 538.5495 546.2724"
     style="font-size:11.34054px;font-variant:normal;font-weight:normal;font-stretch:normal;writing-mode:lr-tb;fill:#fafafa;fill-opacity:1;fill-rule:nonzero;stroke:none;font-family:PT Sans;-inkscape-font-specification:PTSans-Regular"
     class="exp_name_kar">КАРЕЛИЯ</tspan><tspan
     id="tspan13958"
     sodipodi:role="line"
     y="-395.61578"
     x="541.41864 550.38904 556.66034 562.99969 571.97003 578.60425 586.2251 592.70056 599.61829 606.2525"
     style="font-size:11.34054px;font-variant:normal;font-weight:normal;font-stretch:normal;writing-mode:lr-tb;fill:#fafafa;fill-opacity:1;fill-rule:nonzero;stroke:none;font-family:PT Sans;-inkscape-font-specification:PTSans-Regular"
     class="exp_name_mur">МУРМАНСКАЯ</tspan><tspan
     id="tspan13960"
     sodipodi:role="line"
     y="-385.62476"
     x="554.1994 561.95636 568.19366 575.27014 581.62091 587.77881 594.07275"
     style="font-size:11.34054px;font-variant:normal;font-weight:normal;font-stretch:normal;writing-mode:lr-tb;fill:#fafafa;fill-opacity:1;fill-rule:nonzero;stroke:none;font-family:PT Sans;-inkscape-font-specification:PTSans-Regular"
     class="exp_name_mur">ОБЛАСТЬ</tspan><tspan
     id="tspan13962"
     sodipodi:role="line"
     y="-210.32271"
     x="115.97826 123.59912 131.35606 137.69543 144.31831 150.39679 155.40935 163.13225"
     style="font-size:11.34054px;font-variant:normal;font-weight:normal;font-stretch:normal;writing-mode:lr-tb;fill:#1a71b4;fill-opacity:1;fill-rule:nonzero;stroke:none;font-family:PT Sans;-inkscape-font-specification:PTSans-Regular"
     class="exp_name_nor">НОРВЕГИЯ</tspan><tspan
     id="tspan13964"
     sodipodi:role="line"
     y="-207.17003"
     x="382.27682 391.12244 398.8454 406.46622 413.54272 419.99548 427.6163 435.20316 442.92603"
     style="font-size:11.34054px;font-variant:normal;font-weight:normal;font-stretch:normal;writing-mode:lr-tb;fill:#1a71b4;fill-opacity:1;fill-rule:nonzero;stroke:none;font-family:PT Sans;-inkscape-font-specification:PTSans-Regular"
     class="exp_name_fin">ФИНЛЯНДИЯ</tspan></text>

              <g
   id="exp_vuo"
   class="exp_group"
   transform="matrix(0.945045,0,0,0.945045,3.73433,0.720212)"><g
     id="g14945"
     class="exp_ges"><text
   id="text21259-2"
   x="532.44653"
   y="-449.65475"
   style="font-size:11.33809px"
   transform="scale(1,-1)"><tspan
     style="font-size:7.558728px;font-variant:normal;font-weight:normal;font-stretch:normal;writing-mode:lr-tb;fill:#ffffff;fill-opacity:1;fill-rule:nonzero;stroke:none;font-family:PT Sans;-inkscape-font-specification:PTSans-Regular"
     x="481.91641 486.52725 490.27637 493.68539 497.2984 501.04755 505.13681 507.15503 511.56931 515.04633 519.09778 522.62775 526.03668 530.16376 534.24548 537.65448 541.26752 545.39459 549.08331 551.10144 554.44244 558.80377 563.11981"
     y="-154.57722"
     sodipodi:role="line"
     id="tspan21269-8">Каскад Вуоксинских ГЭС:</tspan><tspan
     style="font-size:7.558728px;font-variant:normal;font-weight:normal;font-stretch:normal;writing-mode:lr-tb;fill:#ffffff;fill-opacity:1;fill-rule:nonzero;stroke:none;font-family:PT Sans;-inkscape-font-specification:PTSans-Regular"
     x="481.91641 486.63306 490.38974 493.62491 497.67636 500.34457 504.39606 508.48535 511.89432 515.50745 519.25653 522.84692 524.86511 528.20605 532.56744 536.88348"
     y="-145.09859"
     sodipodi:role="line"
     id="tspan21271-9">Лесогорская ГЭС,</tspan><tspan
     style="font-size:7.558728px;font-variant:normal;font-weight:normal;font-stretch:normal;writing-mode:lr-tb;fill:#ffffff;fill-opacity:1;fill-rule:nonzero;stroke:none;font-family:PT Sans;-inkscape-font-specification:PTSans-Regular"
     x="481.91641 486.23245 490.00427 493.84409 496.72397 500.77545 503.44366 507.49515 511.58441 514.99347 518.60645 522.35559 525.94598 527.96417 531.30511 535.6665"
     y="-135.61992"
     sodipodi:role="line"
     id="tspan21273-5">Светогорская ГЭС</tspan></text>

                     <rect
   style="fill:#ffffff;fill-opacity:0;stroke:none"
   id="rect15211-1"
   width="108.349"
   height="33.3176"
   x="459.347"
   y="-164.988"
   transform="scale(1,-1)" /></g><g
     transform="translate(475.856,147.115)"
     id="g13944"><path
       id="path13946"
       style="fill:#ffffff;fill-opacity:1;fill-rule:evenodd;stroke:none"
       d="m 0,0 c 0,-3.417 -2.773,-6.19 -6.192,-6.19 -3.419,0 -6.191,2.773 -6.191,6.19 0,3.42 2.772,6.191 6.191,6.191 C -2.773,6.191 0,3.42 0,0"
       inkscape:connector-curvature="0" /></g><g
     id="g14722"
     class="exp_popup"><g
   id="g14634"><g
     id="g14636"
     clip-path="url(#clipPath14638)"><path
       d="m 427.315,53.636 -185.925,0 0,124.551 185.925,0 0,-124.551 z"
       style="fill:#ffffff;fill-opacity:1;fill-rule:nonzero;stroke:#1a71b4;stroke-width:0.476167;stroke-linecap:butt;stroke-linejoin:miter;stroke-miterlimit:10;stroke-opacity:1;stroke-dasharray:none"
       id="path14642"
       inkscape:connector-curvature="0" /></g></g><text
   transform="matrix(1,0,0,-1,278.127,103.642)"
   id="text14644"><tspan
     style="font-size:11px;font-variant:normal;font-weight:normal;font-stretch:normal;writing-mode:lr-tb;fill:#7d7d7d;fill-opacity:1;fill-rule:nonzero;stroke:none;font-family:PT Sans;-inkscape-font-specification:PTSans-Regular"
     x="0 7.2490001 13.145 17.93 22.297001 27.753 33.242001 38.5 43.956001 46.893002 52.382 55.319 63.898998 69.904999 75.845001 81.377998 86.602997 92.542999 98.494003 104.5"
     y="0"
     sodipodi:role="line"
     id="tspan14646">Поставка в Финляндию</tspan><tspan
     style="font-size:11px;font-variant:normal;font-weight:normal;font-stretch:normal;writing-mode:lr-tb;fill:#7d7d7d;fill-opacity:1;fill-rule:nonzero;stroke:none;font-family:PT Sans;-inkscape-font-specification:PTSans-Regular"
     x="15.807 21.691999 27.587999 30.25 35.783001 41.789001 47.729 53.735001 59.741001 62.678001 69.112999 75.547997 81.983002 84.919998 90.178001"
     y="12.595"
     sodipodi:role="line"
     id="tspan14648">по линии 110 кВ</tspan><tspan
     style="font-size:11px;font-variant:normal;font-weight:normal;font-stretch:normal;writing-mode:lr-tb;fill:#7d7d7d;fill-opacity:1;fill-rule:nonzero;stroke:none;font-family:PT Sans;-inkscape-font-specification:PTSans-Regular"
     x="9.5039997 15.389 21.34 27.346001 30.283001 37.377998 42.834 47.971001 52.931999 58.938 66.032997 71.488998 77.022003 82.125999 88.066002 93.961998 99.968002"
     y="25.190001"
     sodipodi:role="line"
     id="tspan14650">при максимальной </tspan><tspan
     style="font-size:11px;font-variant:normal;font-weight:normal;font-stretch:normal;writing-mode:lr-tb;fill:#7d7d7d;fill-opacity:1;fill-rule:nonzero;stroke:none;font-family:PT Sans;-inkscape-font-specification:PTSans-Regular"
     x="9.8999996 16.995001 22.891001 31.174 37.113998 43.009998 47.794998 52.161999 58.167999 61.105 67.540001 73.974998 80.410004 83.347 92.047997 98.472"
     y="37.785"
     sodipodi:role="line"
     id="tspan14652">мощности 110 МВт</tspan></text>

<text
   transform="matrix(1,0,0,-1,257.873,159.59)"
   id="text14654"><tspan
     style="font-size:12px;font-variant:normal;font-weight:normal;font-stretch:normal;writing-mode:lr-tb;fill:#0073be;fill-opacity:1;fill-rule:nonzero;stroke:none;font-family:PT Sans;-inkscape-font-specification:PTSans-Regular"
     x="0 7.3200002 14.04 20.892 28.212 35.16 43.188 46.391998 53.400002 59.736 67.944 75.143997 81.996002 90.167999 98.232002 105.084 112.404 120.576 127.668 130.87199 136.17599 143.10001 149.952"
     y="0"
     sodipodi:role="line"
     id="tspan14656">КАСКАД ВУОКСИНСКИХ ГЭС:</tspan><tspan
     style="font-size:12px;font-variant:normal;font-weight:normal;font-stretch:normal;writing-mode:lr-tb;fill:#0073be;fill-opacity:1;fill-rule:nonzero;stroke:none;font-family:PT Sans;-inkscape-font-specification:PTSans-Regular"
     x="24.504 31.992001 38.424 44.964001 53.172001 58.200001 66.407997 72.912003 79.764 87.084 94.103996 100.932 104.136 109.44 116.364 123.216 125.196"
     y="14.004"
     sodipodi:role="line"
     id="tspan14658">ЛЕСОГОРСКАЯ ГЭС, </tspan><tspan
     style="font-size:12px;font-variant:normal;font-weight:normal;font-stretch:normal;writing-mode:lr-tb;fill:#0073be;fill-opacity:1;fill-rule:nonzero;stroke:none;font-family:PT Sans;-inkscape-font-specification:PTSans-Regular"
     x="24.372 31.224001 38.231998 44.664001 50.748001 58.956001 63.984001 72.192001 78.695999 85.547997 92.867996 99.888 106.716 109.92 115.224 122.148"
     y="28.007999"
     sodipodi:role="line"
     id="tspan14660">СВЕТОГОРСКАЯ ГЭС</tspan></text>

<g
   id="g14662"><g
     id="g14664"
     clip-path="url(#clipPath14666)"><g
       id="g14670"
       transform="translate(258.195,120.241)"><path
         d="M 0,0 152.271,0"
         style="fill:none;stroke:#8c8c8c;stroke-width:0.826416;stroke-linecap:butt;stroke-linejoin:miter;stroke-miterlimit:10;stroke-opacity:1;stroke-dasharray:none"
         id="path14672"
         inkscape:connector-curvature="0" /></g></g></g></g></g><g
   id="exp_paz"
   class="exp_group"
   transform="matrix(0.945045,0,0,0.945045,3.83369,0.632389)"><g
     id="g14781"
     class="exp_ges"><text
   id="text21259-8"
   x="534.56818"
   y="-466.16025"
   style="font-size:11.338094px"
   transform="scale(1,-1)"><tspan
     style="font-size:7.55873px;font-variant:normal;font-weight:normal;font-stretch:normal;writing-mode:lr-tb;fill:#ffffff;fill-opacity:1;fill-rule:nonzero;stroke:none;font-family:PT Sans;-inkscape-font-specification:PTSans-Regular"
     x="528.20361 532.62549 534.64368 537.98456 542.34595 546.35968 548.37787 553.35901 557.10815 560.44153 563.85059 567.38049 571.43195 574.10022 578.15167 580.16986 584.7807 588.52979 591.93878 595.55188 599.30103 603.39026 607.1394"
     y="-450.56662"
     sodipodi:role="line"
     id="tspan21263-7">4 ГЭС Пазского Каскада:</tspan><tspan
     style="font-size:7.55873px;font-variant:normal;font-weight:normal;font-stretch:normal;writing-mode:lr-tb;fill:#ffffff;fill-opacity:1;fill-rule:nonzero;stroke:none;font-family:PT Sans;-inkscape-font-specification:PTSans-Regular"
     x="528.20361 532.81445 536.5636 540.69061 543.69141 547.44055 550.97046 555.02191 558.43097 562.04401 566.17108 567.41827 569.23236 573.57867 577.41846 581.19031 585.24176 588.65076 592.18073 596.23218 599.64117 603.25421 607.38129"
     y="-441.08798"
     sodipodi:role="line"
     id="tspan21265-5">Кайтакоски, Хевоскоски,</tspan><tspan
     style="font-size:7.55873px;font-variant:normal;font-weight:normal;font-stretch:normal;writing-mode:lr-tb;fill:#ffffff;fill-opacity:1;fill-rule:nonzero;stroke:none;font-family:PT Sans;-inkscape-font-specification:PTSans-Regular"
     x="528.20361 532.17194 535.92108 539.51147 543.04132 547.0929 550.50183 554.11493 558.242 559.48914 561.50732 565.80829 569.88995 574.01703 577.42603 580.95593 585.00745 588.41638 592.02954"
     y="-431.60934"
     sodipodi:role="line"
     id="tspan21267-4">Раякоски, Янискоски</tspan></text>
<rect
   style="fill:#ffffff;fill-opacity:0;stroke:none"
   id="rect15211-9"
   width="104.244"
   height="36.2166"
   x="507.898"
   y="-465.555"
   transform="scale(1,-1)" />


</g><g
     id="g13940"
     transform="matrix(1.00002,0,0,1,524.652,456.99)"><path
       d="m 0,0 c 0,-3.419 -2.772,-6.19 -6.191,-6.19 -3.418,0 -6.19,2.771 -6.19,6.19 0,3.419 2.772,6.191 6.19,6.191 C -2.772,6.191 0,3.419 0,0"
       style="fill:#ffffff;fill-opacity:1;fill-rule:evenodd;stroke:none"
       id="path13942"
       inkscape:connector-curvature="0" /></g><g
     id="g14929"
     class="exp_popup"><path
   id="path14392"
   style="fill:#ffffff;fill-opacity:1;fill-rule:nonzero;stroke:#1a71b4;stroke-width:0.447596;stroke-linecap:butt;stroke-linejoin:miter;stroke-miterlimit:10;stroke-opacity:1;stroke-dasharray:none"
   d="m 497.314,443.801 -171.925,0 0,118.885 171.925,0 0,-118.885 z"
   inkscape:connector-curvature="0" /><text
   y="-493.14099"
   x="355.14801"
   id="text14394"
   transform="scale(1,-1)"><tspan
     id="tspan14396"
     sodipodi:role="line"
     y="-493.14099"
     x="355.14801 362.397 368.293 373.078 377.44501 382.901 388.39001 393.64801 399.104 402.04102 407.53 410.46701 419.047 425.05301 430.99301 436.526 441.75101 447.69101 453.642 459.64801"
     style="font-size:11px;font-variant:normal;font-weight:normal;font-stretch:normal;writing-mode:lr-tb;fill:#7d7d7d;fill-opacity:1;fill-rule:nonzero;stroke:none;font-family:PT Sans;-inkscape-font-specification:PTSans-Regular">Поставка в Финляндию</tspan><tspan
     id="tspan14398"
     sodipodi:role="line"
     y="-480.54599"
     x="370.95499 376.84 382.73599 385.39801 390.931 396.93701 402.87701 408.883 414.88901 417.82599 424.26099 430.69598 437.13101 440.06799 445.32599"
     style="font-size:11px;font-variant:normal;font-weight:normal;font-stretch:normal;writing-mode:lr-tb;fill:#7d7d7d;fill-opacity:1;fill-rule:nonzero;stroke:none;font-family:PT Sans;-inkscape-font-specification:PTSans-Regular">по линии 110 кВ</tspan><tspan
     id="tspan14400"
     sodipodi:role="line"
     y="-467.95099"
     x="364.65201 370.53699 376.48801 382.49399 385.431 392.526 397.98199 403.11899 408.07999 414.086 421.181 426.63699 432.17001 437.27399 443.21399 449.10999 455.116"
     style="font-size:11px;font-variant:normal;font-weight:normal;font-stretch:normal;writing-mode:lr-tb;fill:#7d7d7d;fill-opacity:1;fill-rule:nonzero;stroke:none;font-family:PT Sans;-inkscape-font-specification:PTSans-Regular">при максимальной </tspan><tspan
     id="tspan14402"
     sodipodi:role="line"
     y="-455.35599"
     x="368.271 375.366 381.26199 389.54501 395.48502 401.38101 406.16602 410.53299 416.539 419.47601 425.91101 432.34601 435.28299 443.98401 450.40799"
     style="font-size:11px;font-variant:normal;font-weight:normal;font-stretch:normal;writing-mode:lr-tb;fill:#7d7d7d;fill-opacity:1;fill-rule:nonzero;stroke:none;font-family:PT Sans;-inkscape-font-specification:PTSans-Regular">мощности 75 МВт</tspan></text>

<text
   y="-543.09003"
   x="338.62701"
   id="text14404"
   transform="scale(1,-1)"><tspan
     id="tspan14406"
     sodipodi:role="line"
     y="-543.09003"
     x="338.62701 345.647 348.85101 354.155 361.07901 367.45099 370.655 378.56299 385.58301 392.07501 398.927 406.12701 414.33499 419.36301 427.57101 430.77499 438.095 444.815 451.66699 458.987 465.935 473.96301 480.983"
     style="font-size:12px;font-variant:normal;font-weight:normal;font-stretch:normal;writing-mode:lr-tb;fill:#0073be;fill-opacity:1;fill-rule:nonzero;stroke:none;font-family:PT Sans;-inkscape-font-specification:PTSans-Regular">4 ГЭС ПАЗСКОГО КАСКАДА:</tspan><tspan
     id="tspan14408"
     sodipodi:role="line"
     y="-530.09399"
     x="335.207 342.52701 349.547 357.71899 363.57501 370.595 377.79501 386.00299 392.85501 400.17499 408.34702 410.327 413.207 420.62302 427.05499 434.06299 440.78299 447.63501 454.83499 463.043 469.89502 477.215 485.38699"
     style="font-size:12px;font-variant:normal;font-weight:normal;font-stretch:normal;writing-mode:lr-tb;fill:#0073be;fill-opacity:1;fill-rule:nonzero;stroke:none;font-family:PT Sans;-inkscape-font-specification:PTSans-Regular">КАЙТАКОСКИ, ХЕВАСКОСКИ,</tspan><tspan
     id="tspan14410"
     sodipodi:role="line"
     y="-517.09802"
     x="346.07901 352.03101 359.05099 365.879 373.07901 381.28699 388.13901 395.45901 403.63101 405.61099 408.815 415.64301 423.707 431.879 438.73099 445.931 454.13901 460.991 468.311"
     style="font-size:12px;font-variant:normal;font-weight:normal;font-stretch:normal;writing-mode:lr-tb;fill:#0073be;fill-opacity:1;fill-rule:nonzero;stroke:none;font-family:PT Sans;-inkscape-font-specification:PTSans-Regular">РАЯКОСКИ, ЯНИСКОСКИ</tspan></text>

<g
   id="g14412"><g
     clip-path="url(#clipPath14416)"
     id="g14414"><g
       transform="translate(335.216,508.74)"
       id="g14420"><path
         id="path14422"
         style="fill:none;stroke:#8c8c8c;stroke-width:0.826416;stroke-linecap:butt;stroke-linejoin:miter;stroke-miterlimit:10;stroke-opacity:1;stroke-dasharray:none"
         d="M 0,0 152.271,0"
         inkscape:connector-curvature="0" /></g></g></g></g></g>
<g
   id="exp_bor"
   class="exp_group"
   transform="matrix(0.945045,0,0,0.945045,3.73433,22.7259)"><g
     id="g14896"
     class="exp_ges"><text
   id="text21259"
   x="535.4361"
   y="-445.01715"
   style="font-size:11.338094px"
   transform="scale(1,-1)"><tspan
     style="font-size:7.55873px;font-variant:normal;font-weight:normal;font-stretch:normal;writing-mode:lr-tb;fill:#ffffff;fill-opacity:1;fill-rule:nonzero;stroke:none;font-family:PT Sans;-inkscape-font-specification:PTSans-Regular"
     x="535.4361 539.59338 543.64484 547.73413 551.86121 555.09631 559.14783 561.77826 565.58026 569.4201 573.47162 576.88062 580.49371 584.2428 587.83319 589.85138 593.19232 597.55371"
     y="-445.01715"
     sodipodi:role="line"
     id="tspan21261">Борисоглебская ГЭС</tspan></text>
<rect
   style="fill:#ffffff;fill-opacity:0;stroke:none"
   id="rect15211"
   width="84.7091"
   height="20.0217"
   x="519.587"
   y="-462.278"
   transform="scale(1,-1)" />
<g
   id="g14428"><g
     id="g14430"
     clip-path="url(#clipPath14432)"><g
       id="g14436"
       transform="translate(538.763,526.523)"><path
         d="M 0,0 0,0 119.891,0 0,0 z"
         style="fill:none;stroke:#7d7d7d;stroke-width:0.63489;stroke-linecap:butt;stroke-linejoin:miter;stroke-miterlimit:10;stroke-opacity:1;stroke-dasharray:none"
         id="path14438"
         inkscape:connector-curvature="0" /></g></g></g></g><g
     id="g13936"
     transform="translate(534.915,453.081)"><path
       d="m 0,0 c 0,-3.418 -2.771,-6.19 -6.19,-6.19 -3.419,0 -6.191,2.772 -6.191,6.19 0,3.419 2.772,6.189 6.191,6.189 C -2.771,6.189 0,3.419 0,0"
       style="fill:#ffffff;fill-opacity:1;fill-rule:evenodd;stroke:none"
       id="path13938"
       inkscape:connector-curvature="0" /></g><g
     id="g15095"
     class="exp_popup"
     transform="translate(-24.6009,0)"><path
   id="path14240"
   style="fill:#ffffff;fill-opacity:1;fill-rule:nonzero;stroke:#1a71b4;stroke-width:0.383051;stroke-linecap:butt;stroke-linejoin:miter;stroke-miterlimit:10;stroke-opacity:1;stroke-dasharray:none"
   d="m 716.183,463.8 -151.926,0 0,98.885 151.926,0 0,-98.885 z"
   inkscape:connector-curvature="0" /><text
   transform="scale(1,-1)"
   id="text14242"
   x="586.94702"
   y="-512.14099"><tspan
     style="font-size:11px;font-variant:normal;font-weight:normal;font-stretch:normal;writing-mode:lr-tb;fill:#7d7d7d;fill-opacity:1;fill-rule:nonzero;stroke:none;font-family:PT Sans;-inkscape-font-specification:PTSans-Regular"
     x="586.94702 594.19598 600.09198 604.87701 609.24402 614.70001 620.18903 625.44702 630.90302 633.84003 639.32898 642.26599 649.65802 655.55402 661.505 666.99402 672.58203 676.64099 682.64697 690.55603"
     y="-512.14099"
     sodipodi:role="line"
     id="tspan14244">Поставка в Норвегию </tspan><tspan
     style="font-size:11px;font-variant:normal;font-weight:normal;font-stretch:normal;writing-mode:lr-tb;fill:#7d7d7d;fill-opacity:1;fill-rule:nonzero;stroke:none;font-family:PT Sans;-inkscape-font-specification:PTSans-Regular"
     x="599.828 605.71301 611.60901 614.271 619.80402 625.81 631.75 637.75598 643.76202 646.69897 653.13397 659.56903 666.00403 668.94098 674.19897"
     y="-499.54599"
     sodipodi:role="line"
     id="tspan14246">по линии 154 кВ</tspan><tspan
     style="font-size:11px;font-variant:normal;font-weight:normal;font-stretch:normal;writing-mode:lr-tb;fill:#7d7d7d;fill-opacity:1;fill-rule:nonzero;stroke:none;font-family:PT Sans;-inkscape-font-specification:PTSans-Regular"
     x="593.52502 599.40997 605.36102 611.367 614.30402 621.39899 626.85498 631.992 636.953 642.95898 650.05402 655.51001 661.04303 666.14697 672.08698 677.98303 683.98901"
     y="-486.95099"
     sodipodi:role="line"
     id="tspan14248">при максимальной </tspan><tspan
     style="font-size:11px;font-variant:normal;font-weight:normal;font-stretch:normal;writing-mode:lr-tb;fill:#7d7d7d;fill-opacity:1;fill-rule:nonzero;stroke:none;font-family:PT Sans;-inkscape-font-specification:PTSans-Regular"
     x="597.14398 604.23901 610.13501 618.41803 624.35797 630.25403 635.039 639.40601 645.41199 648.349 654.784 661.21899 664.15601 672.85699 679.28101"
     y="-474.35599"
     sodipodi:role="line"
     id="tspan14250">мощности 56 МВт</tspan></text>

<text
   transform="scale(1,-1)"
   id="text14252"
   x="580.26202"
   y="-538.09003"><tspan
     style="font-size:12px;font-variant:normal;font-weight:normal;font-stretch:normal;writing-mode:lr-tb;fill:#0073be;fill-opacity:1;fill-rule:nonzero;stroke:none;font-family:PT Sans;-inkscape-font-specification:PTSans-Regular"
     x="580.26202 586.862 595.07001 601.77802 609.95001 616.48999 624.698 629.81 637.29797 643.72998 650.33002 657.18201 664.50201 671.52197 678.34998 681.55402 686.85797 693.78198"
     y="-538.09003"
     sodipodi:role="line"
     id="tspan14254">БОРИСОГЛЕБСКАЯ ГЭС</tspan></text>

<g
   id="g14256"><g
     id="g14258"
     clip-path="url(#clipPath14260)"><g
       id="g14264"
       transform="translate(577.552,528.74)"><path
         d="M 0,0 125.334,0"
         style="fill:none;stroke:#8c8c8c;stroke-width:0.75023;stroke-linecap:butt;stroke-linejoin:miter;stroke-miterlimit:10;stroke-opacity:1;stroke-dasharray:none"
         id="path14266"
         inkscape:connector-curvature="0" /></g></g></g></g></g></g></svg>
